<?xml version="1.0" standalone="no"?><!DOCTYPE svg PUBLIC "-//W3C//DTD SVG 1.1//EN" "http://www.w3.org/Graphics/SVG/1.1/DTD/svg11.dtd"><svg t="1555309808670" class="icon" style="" viewBox="0 0 1024 1024" version="1.1" xmlns="http://www.w3.org/2000/svg" p-id="5721" xmlns:xlink="http://www.w3.org/1999/xlink" width="200" height="200"><defs><style type="text/css"></style></defs><path d="M919.703704 267.377778h-246.518519c-9.481481 0-18.962963-7.585185-18.962963-18.962963V189.62963c0-9.481481 7.585185-18.962963 18.962963-18.962963h246.518519c9.481481 0 18.962963 7.585185 18.962963 18.962963v58.785185c0 9.481481-7.585185 18.962963-18.962963 18.962963z m0 282.548148h-132.740741c-9.481481 0-18.962963-7.585185-18.962963-18.962963V322.37037c0-9.481481 7.585185-18.962963 18.962963-18.962963h132.740741c9.481481 0 18.962963 7.585185 18.962963 18.962963v208.592593c0 11.377778-7.585185 18.962963-18.962963 18.962963z m0 210.488889h-58.785185c-9.481481 0-18.962963 7.585185-18.962963 18.962963 0 9.481481 7.585185 18.962963 18.962963 18.962963h58.785185c9.481481 0 18.962963 7.585185 18.962963 18.962963v58.785185c0 9.481481-7.585185 18.962963-18.962963 18.962963h-246.518519c-9.481481 0-18.962963-7.585185-18.962963-18.962963V853.333333c0-9.481481 7.585185-18.962963 18.962963-18.962963h75.851852c9.481481 0 18.962963-7.585185 18.962963-18.962963V606.814815c0-9.481481 7.585185-18.962963 18.962963-18.962963h132.740741c9.481481 0 18.962963 7.585185 18.962963 18.962963v132.740741c0 11.377778-7.585185 20.859259-18.962963 20.859259z m-208.592593-37.925926v37.925926c0 9.481481-7.585185 18.962963-18.962963 18.962963h-587.851852c-9.481481 0-18.962963-7.585185-18.962963-18.962963v-37.925926m474.074074 170.666667h-94.814814c-9.481481 0-18.962963-7.585185-18.962963-18.962963v-18.962963c0-9.481481 7.585185-18.962963 18.962963-18.962963h94.814814c9.481481 0 18.962963 7.585185 18.962963 18.962963v18.962963c0 9.481481-7.585185 18.962963-18.962963 18.962963z m-37.925926-172.562963v-18.962963c0-9.481481-7.585185-18.962963-18.962962-18.962963h-398.222223c-9.481481 0-18.962963-7.585185-18.962963-18.962963V379.259259c0-9.481481 7.585185-18.962963 18.962963-18.962963H692.148148c9.481481 0 18.962963 7.585185 18.962963 18.962963v284.444445c0 9.481481-7.585185 18.962963-18.962963 18.962963h-37.925926c-9.481481 0-18.962963 7.585185-18.962963 18.962963v18.962963m-37.925926-587.851852v151.703703c0 9.481481-7.585185 18.962963-18.962963 18.962963h-530.962963c-9.481481 0-18.962963 7.585185-18.962963 18.962963v493.037037c0 9.481481 7.585185 18.962963 18.962963 18.962963h284.444445c9.481481 0 18.962963 7.585185 18.962963 18.962963v18.962963c0 9.481481-7.585185 18.962963-18.962963 18.962963h-151.703704c-9.481481 0-18.962963 7.585185-18.962963 18.962963v18.962963c0 9.481481 7.585185 18.962963 18.962963 18.962963h796.444445c9.481481 0 18.962963-7.585185 18.962963-18.962963V132.740741c0-9.481481-7.585185-18.962963-18.962963-18.962963h-360.296297c-9.481481 0-18.962963 9.481481-18.962963 18.962963z" fill="#00A4EF" p-id="5722"></path></svg>