<?xml version="1.0" standalone="no"?><!DOCTYPE svg PUBLIC "-//W3C//DTD SVG 1.1//EN" "http://www.w3.org/Graphics/SVG/1.1/DTD/svg11.dtd"><svg t="1555309400228" class="icon" style="" viewBox="0 0 1024 1024" version="1.1" xmlns="http://www.w3.org/2000/svg" p-id="4218" xmlns:xlink="http://www.w3.org/1999/xlink" width="200" height="200"><defs><style type="text/css"></style></defs><path d="M723.456 605.696H142.336c-6.656 0-11.776-5.632-11.776-11.776V195.072c0-6.656 5.632-11.776 11.776-11.776h581.12c6.656 0 11.776 5.632 11.776 11.776V593.92c0.512 6.656-5.12 11.776-11.776 11.776z" fill="#E1F5FE" p-id="4219"></path><path d="M724.992 623.104H140.8c-15.36 0-27.648-12.288-27.648-27.648V193.536c0-15.36 12.288-27.648 27.648-27.648h584.192c15.36 0 27.648 12.288 27.648 27.648v401.408c0.512 15.872-12.288 28.16-27.648 28.16z m-577.024-34.816h570.368V200.704H147.968v387.584z" fill="#42A5F5" p-id="4220"></path><path d="M572.928 723.968H301.056v-34.816h117.76v-68.096h34.816v68.096h118.784v34.816z" fill="#42A5F5" p-id="4221"></path><path d="M418.304 338.432H250.88v-34.816h167.424v34.816z m222.208-55.808H250.88v-34.816h390.144v34.816z" fill="#90CAF9" p-id="4222"></path><path d="M537.088 668.672c0 104.96 84.992 190.464 190.464 190.464s190.464-84.992 190.464-190.464c0-104.96-84.992-190.464-190.464-190.464s-190.464 85.504-190.464 190.464z" fill="#43A047" p-id="4223"></path><path d="M748.032 568.32c0-0.512-4.096-16.384-19.968-25.088-6.656-3.584-14.336-5.632-23.552-5.632-6.656 0-11.776 1.024-11.776 1.024l-2.56 0.512-69.632 172.544 5.632 76.288 59.904-52.224 62.976-166.4-1.024-1.024z m23.04 51.712h67.584v10.24h-67.584v-10.24z m-27.648 64.512h95.744v-10.24h-95.744v10.24z m-22.016 56.32h117.248v-10.24h-117.248v10.24z" fill="#FFFFFF" p-id="4224"></path></svg>